<svg width="206" height="66" viewBox="0 0 206 66" fill="none" xmlns="http://www.w3.org/2000/svg">
<g filter="url(#filter0_d)">
<path d="M113.688 49.8385C112.37 49.8385 111.187 49.5343 110.139 48.9259C109.092 48.3006 108.264 47.4557 107.655 46.391C107.047 45.3263 106.734 44.1264 106.717 42.7913V31.2319C106.717 30.8432 106.836 30.5306 107.072 30.294C107.326 30.0574 107.638 29.9391 108.01 29.9391C108.399 29.9391 108.711 30.0574 108.948 30.294C109.185 30.5306 109.303 30.8432 109.303 31.2319V38.0763C109.894 37.3665 110.604 36.8088 111.432 36.4032C112.277 35.9807 113.198 35.7695 114.195 35.7695C115.429 35.7695 116.536 36.0821 117.516 36.7074C118.496 37.3158 119.265 38.1524 119.823 39.217C120.398 40.2648 120.685 41.4563 120.685 42.7913C120.685 44.1264 120.372 45.3263 119.747 46.391C119.139 47.4557 118.311 48.3006 117.263 48.9259C116.215 49.5343 115.024 49.8385 113.688 49.8385ZM113.688 47.5571C114.55 47.5571 115.319 47.3543 115.995 46.9487C116.671 46.5262 117.204 45.9516 117.592 45.2249C117.998 44.4982 118.201 43.687 118.201 42.7913C118.201 41.8787 117.998 41.0676 117.592 40.3578C117.204 39.648 116.671 39.0903 115.995 38.6847C115.319 38.2622 114.55 38.051 113.688 38.051C112.843 38.051 112.075 38.2622 111.382 38.6847C110.706 39.0903 110.173 39.648 109.785 40.3578C109.396 41.0676 109.202 41.8787 109.202 42.7913C109.202 43.687 109.396 44.4982 109.785 45.2249C110.173 45.9516 110.706 46.5262 111.382 46.9487C112.075 47.3543 112.843 47.5571 113.688 47.5571Z" fill="white"/>
<path d="M127.532 49.8385C126.164 49.8385 124.955 49.5428 123.907 48.9513C122.86 48.3429 122.032 47.5148 121.423 46.467C120.832 45.4023 120.536 44.1856 120.536 42.8167C120.536 41.4309 120.832 40.2141 121.423 39.1663C122.032 38.1017 122.86 37.2736 123.907 36.6821C124.955 36.0737 126.164 35.7695 127.532 35.7695C128.884 35.7695 130.084 36.0737 131.132 36.6821C132.18 37.2736 133 38.1017 133.591 39.1663C134.199 40.2141 134.504 41.4309 134.504 42.8167C134.504 44.1856 134.208 45.4023 133.616 46.467C133.025 47.5148 132.205 48.3429 131.157 48.9513C130.11 49.5428 128.901 49.8385 127.532 49.8385ZM127.532 47.5571C128.411 47.5571 129.189 47.3543 129.865 46.9487C130.541 46.5431 131.065 45.9854 131.436 45.2756C131.825 44.5658 132.019 43.7462 132.019 42.8167C132.019 41.8872 131.825 41.0676 131.436 40.3578C131.065 39.6311 130.541 39.0649 129.865 38.6594C129.189 38.2538 128.411 38.051 127.532 38.051C126.654 38.051 125.876 38.2538 125.2 38.6594C124.524 39.0649 123.992 39.6311 123.603 40.3578C123.215 41.0676 123.02 41.8872 123.02 42.8167C123.02 43.7462 123.215 44.5658 123.603 45.2756C123.992 45.9854 124.524 46.5431 125.2 46.9487C125.876 47.3543 126.654 47.5571 127.532 47.5571Z" fill="white"/>
<path d="M141.343 49.8385C139.974 49.8385 138.766 49.5428 137.718 48.9513C136.67 48.3429 135.842 47.5148 135.234 46.467C134.642 45.4023 134.347 44.1856 134.347 42.8167C134.347 41.4309 134.642 40.2141 135.234 39.1663C135.842 38.1017 136.67 37.2736 137.718 36.6821C138.766 36.0737 139.974 35.7695 141.343 35.7695C142.695 35.7695 143.895 36.0737 144.943 36.6821C145.99 37.2736 146.81 38.1017 147.402 39.1663C148.01 40.2141 148.314 41.4309 148.314 42.8167C148.314 44.1856 148.018 45.4023 147.427 46.467C146.835 47.5148 146.016 48.3429 144.968 48.9513C143.92 49.5428 142.712 49.8385 141.343 49.8385ZM141.343 47.5571C142.222 47.5571 142.999 47.3543 143.675 46.9487C144.351 46.5431 144.875 45.9854 145.247 45.2756C145.636 44.5658 145.83 43.7462 145.83 42.8167C145.83 41.8872 145.636 41.0676 145.247 40.3578C144.875 39.6311 144.351 39.0649 143.675 38.6594C142.999 38.2538 142.222 38.051 141.343 38.051C140.464 38.051 139.687 38.2538 139.011 38.6594C138.335 39.0649 137.803 39.6311 137.414 40.3578C137.025 41.0676 136.831 41.8872 136.831 42.8167C136.831 43.7462 137.025 44.5658 137.414 45.2756C137.803 45.9854 138.335 46.5431 139.011 46.9487C139.687 47.3543 140.464 47.5571 141.343 47.5571Z" fill="white"/>
<path d="M149.602 49.7371C149.23 49.7371 148.926 49.6273 148.689 49.4076C148.47 49.171 148.36 48.8668 148.36 48.495V31.1812C148.36 30.8094 148.47 30.5137 148.689 30.294C148.926 30.0574 149.23 29.9391 149.602 29.9391C149.974 29.9391 150.27 30.0574 150.489 30.294C150.726 30.5137 150.844 30.8094 150.844 31.1812V41.4985L157.004 35.9976C157.258 35.761 157.537 35.6512 157.841 35.6681C158.162 35.685 158.432 35.8202 158.652 36.0737C158.888 36.3272 158.998 36.606 158.981 36.9102C158.965 37.2144 158.829 37.4848 158.576 37.7214L153.912 41.8787L158.829 47.912C159.049 48.1823 159.142 48.4781 159.108 48.7992C159.091 49.1034 158.939 49.3738 158.652 49.6104C158.381 49.8301 158.077 49.923 157.739 49.8892C157.418 49.8723 157.148 49.7287 156.928 49.4583L152.112 43.5011L150.844 44.6165V48.495C150.844 48.8668 150.726 49.171 150.489 49.4076C150.27 49.6273 149.974 49.7371 149.602 49.7371Z" fill="white"/>
<path fill-rule="evenodd" clip-rule="evenodd" d="M80.4565 37.0416C80.0847 37.0416 79.7721 36.9149 79.5186 36.6614C79.282 36.4248 79.1637 36.1206 79.1637 35.7488V24.1894C79.1806 22.8543 79.4932 21.6544 80.1016 20.5898C80.71 19.5251 81.5381 18.6885 82.5859 18.0801C83.6337 17.4549 84.8167 17.1422 86.1348 17.1422C87.4699 17.1422 88.6613 17.4549 89.7091 18.0801C90.7569 18.6885 91.585 19.5251 92.1934 20.5898C92.6373 21.3456 92.9236 22.1696 93.0524 23.0617C93.1719 22.1334 93.4443 21.2925 93.8696 20.5391C94.478 19.4744 95.3061 18.6463 96.3539 18.0548C97.4017 17.4464 98.61 17.1422 99.9789 17.1422C101.331 17.1422 102.531 17.4464 103.579 18.0548C104.626 18.6463 105.446 19.4744 106.037 20.5391C106.451 21.2509 106.724 22.0407 106.856 22.9085C106.998 22.0751 107.273 21.3021 107.68 20.5898C108.289 19.5251 109.117 18.6885 110.164 18.0801C111.212 17.4549 112.395 17.1422 113.713 17.1422C115.048 17.1422 116.24 17.4549 117.288 18.0801C118.335 18.6885 119.164 19.5251 119.772 20.5898C120.397 21.6544 120.71 22.8543 120.71 24.1894C120.71 25.5245 120.423 26.7244 119.848 27.789C119.29 28.8368 118.521 29.6734 117.541 30.2987C116.561 30.907 115.454 31.2112 114.22 31.2112C113.223 31.2112 112.302 31.0084 111.457 30.6029C110.629 30.1804 109.919 29.6142 109.328 28.9044V35.7488C109.328 36.1206 109.21 36.4248 108.973 36.6614C108.736 36.9149 108.424 37.0416 108.035 37.0416C107.663 37.0416 107.351 36.9149 107.097 36.6614C106.861 36.4248 106.742 36.1206 106.742 35.7488V26.0697C106.595 26.7002 106.368 27.2902 106.063 27.8397C105.471 28.8875 104.652 29.7156 103.604 30.324C102.556 30.9155 101.348 31.2112 99.9789 31.2112C98.61 31.2112 97.4017 30.9155 96.3539 30.324C95.3061 29.7156 94.478 28.8875 93.8696 27.8397C93.4488 27.0822 93.1777 26.2477 93.0562 25.3362C92.9367 26.221 92.6744 27.0386 92.2694 27.789C91.7117 28.8368 90.9428 29.6734 89.9626 30.2987C88.9824 30.907 87.8755 31.2112 86.6418 31.2112C85.6447 31.2112 84.7237 31.0084 83.8787 30.6029C83.0506 30.1804 82.3408 29.6142 81.7494 28.9044V35.7488C81.7494 36.1206 81.6311 36.4248 81.3945 36.6614C81.1579 36.9149 80.8452 37.0416 80.4565 37.0416ZM86.1348 28.9298C86.9967 28.9298 87.7657 28.727 88.4417 28.3214C89.1176 27.8989 89.65 27.3328 90.0387 26.623C90.4443 25.8963 90.6471 25.0851 90.6471 24.1894C90.6471 23.2768 90.4443 22.4656 90.0387 21.7558C89.65 21.0292 89.1176 20.463 88.4417 20.0574C87.7657 19.6349 86.9967 19.4237 86.1348 19.4237C85.2898 19.4237 84.5209 19.6349 83.828 20.0574C83.152 20.463 82.6197 21.0292 82.231 21.7558C81.8423 22.4656 81.648 23.2768 81.648 24.1894C81.648 25.0851 81.8423 25.8963 82.231 26.623C82.6197 27.3328 83.152 27.8989 83.828 28.3214C84.5209 28.727 85.2898 28.9298 86.1348 28.9298ZM99.9789 28.9298C100.858 28.9298 101.635 28.727 102.311 28.3214C102.987 27.9158 103.511 27.3581 103.883 26.6483C104.271 25.9385 104.466 25.1189 104.466 24.1894C104.466 23.2599 104.271 22.4403 103.883 21.7305C103.511 21.0038 102.987 20.4377 102.311 20.0321C101.635 19.6265 100.858 19.4237 99.9789 19.4237C99.1001 19.4237 98.3227 19.6265 97.6467 20.0321C96.9707 20.4377 96.4384 21.0038 96.0497 21.7305C95.661 22.4403 95.4667 23.2599 95.4667 24.1894C95.4667 25.1189 95.661 25.9385 96.0497 26.6483C96.4384 27.3581 96.9707 27.9158 97.6467 28.3214C98.3227 28.727 99.1001 28.9298 99.9789 28.9298ZM116.02 28.3214C115.344 28.727 114.575 28.9298 113.713 28.9298C112.868 28.9298 112.099 28.727 111.407 28.3214C110.731 27.8989 110.198 27.3328 109.81 26.623C109.421 25.8963 109.227 25.0851 109.227 24.1894C109.227 23.2768 109.421 22.4656 109.81 21.7558C110.198 21.0292 110.731 20.463 111.407 20.0574C112.099 19.6349 112.868 19.4237 113.713 19.4237C114.575 19.4237 115.344 19.6349 116.02 20.0574C116.696 20.463 117.229 21.0292 117.617 21.7558C118.023 22.4656 118.226 23.2768 118.226 24.1894C118.226 25.0851 118.023 25.8963 117.617 26.623C117.229 27.3328 116.696 27.8989 116.02 28.3214Z" fill="white"/>
</g>
<g filter="url(#filter1_d)">
<path d="M57.9059 39.6505C59.6027 40.0972 61.3857 40.1011 63.0845 39.6617C64.7832 39.2224 66.3408 38.3546 67.6083 37.1412C68.8757 35.9279 69.8107 34.4096 70.3237 32.7317C70.8367 31.0537 70.9105 29.2722 70.5383 27.5575C70.166 25.8429 69.3599 24.2524 68.1973 22.9383C67.0346 21.6241 65.5542 20.6303 63.8977 20.0518C62.2412 19.4733 60.464 19.3296 58.736 19.6343C57.008 19.939 55.3872 20.6819 54.0284 21.7921L57.597 26.1598C58.2085 25.6603 58.9379 25.3259 59.7154 25.1888C60.493 25.0517 61.2928 25.1164 62.0382 25.3767C62.7836 25.637 63.4498 26.0842 63.973 26.6756C64.4962 27.267 64.8589 27.9827 65.0264 28.7543C65.194 29.5259 65.1607 30.3276 64.9299 31.0826C64.699 31.8377 64.2783 32.5209 63.7079 33.0669C63.1376 33.6129 62.4367 34.0035 61.6722 34.2012C60.9078 34.3989 60.1054 34.3971 59.3419 34.1961L57.9059 39.6505Z" fill="white"/>
<rect x="55.9736" y="33.3225" width="3.57088" height="5.62681" transform="rotate(14.5926 55.9736 33.3225)" fill="white"/>
<path d="M49.1505 36.6286C49.8454 33.9892 52.5484 32.4128 55.1878 33.1077L56.0036 33.3225L54.2237 40.0832C53.8169 41.6282 52.2347 42.551 50.6897 42.1442V42.1442C49.1447 41.7374 48.222 40.1552 48.6288 38.6102L49.1505 36.6286Z" fill="white"/>
<circle cx="56.0373" cy="23.7866" r="2.84609" transform="rotate(-15.2502 56.0373 23.7866)" fill="white"/>
<circle cx="49.7327" cy="45.5355" r="2.95228" transform="rotate(-15.2502 49.7327 45.5355)" fill="white"/>
</g>
<defs>
<filter id="filter0_d" x="75.1637" y="17.1422" width="87.9512" height="40.7538" filterUnits="userSpaceOnUse" color-interpolation-filters="sRGB">
<feFlood flood-opacity="0" result="BackgroundImageFix"/>
<feColorMatrix in="SourceAlpha" type="matrix" values="0 0 0 0 0 0 0 0 0 0 0 0 0 0 0 0 0 0 127 0"/>
<feOffset dy="4"/>
<feGaussianBlur stdDeviation="2"/>
<feColorMatrix type="matrix" values="0 0 0 0 0 0 0 0 0 0 0 0 0 0 0 0 0 0 0.15 0"/>
<feBlend mode="normal" in2="BackgroundImageFix" result="effect1_dropShadow"/>
<feBlend mode="normal" in="SourceGraphic" in2="effect1_dropShadow" result="shape"/>
</filter>
<filter id="filter1_d" x="42.1078" y="17.1422" width="35.0002" height="40.0182" filterUnits="userSpaceOnUse" color-interpolation-filters="sRGB">
<feFlood flood-opacity="0" result="BackgroundImageFix"/>
<feColorMatrix in="SourceAlpha" type="matrix" values="0 0 0 0 0 0 0 0 0 0 0 0 0 0 0 0 0 0 127 0"/>
<feOffset dy="4"/>
<feGaussianBlur stdDeviation="2"/>
<feColorMatrix type="matrix" values="0 0 0 0 0 0 0 0 0 0 0 0 0 0 0 0 0 0 0.15 0"/>
<feBlend mode="normal" in2="BackgroundImageFix" result="effect1_dropShadow"/>
<feBlend mode="normal" in="SourceGraphic" in2="effect1_dropShadow" result="shape"/>
</filter>
</defs>
</svg>
